<svg xmlns="http://www.w3.org/2000/svg" version="1.1" xmlns:xlink="http://www.w3.org/1999/xlink" xmlns:svgjs="http://svgjs.dev/svgjs" viewBox="0 0 15.214639773839995 4.566727488206386"><g transform="matrix(1,0,0,1,4.454810420790203,0.7276444066031929)"><rect width="15.214639773839995" height="15.214639773839995" x="-4.454810420790204" y="-6.051600549419997" fill="#343432"></rect><g><path d=" M 0.082467 1.7492999999999999 Q 0.059976 1.7492999999999999 0.044982 1.7330564999999998 Q 0.029988 1.716813 0.029988 1.696821 Q 0.029988 1.6843259999999998 0.032487 1.6743299999999999 L 0.627249 0.0674729999999999 Q 0.634746 0.03998400000000002 0.657237 0.01999200000000001 Q 0.679728 0 0.719712 0 L 1.039584 0 Q 1.0795679999999999 0 1.102059 0.01999200000000001 Q 1.12455 0.03998400000000002 1.132047 0.0674729999999999 L 1.726809 1.6743299999999999 Q 1.7293079999999998 1.6843259999999998 1.7293079999999998 1.696821 Q 1.7293079999999998 1.716813 1.714314 1.7330564999999998 Q 1.69932 1.7492999999999999 1.676829 1.7492999999999999 L 1.416933 1.7492999999999999 Q 1.379448 1.7492999999999999 1.361955 1.7318069999999999 Q 1.344462 1.714314 1.339464 1.69932 L 1.2320069999999999 1.4194319999999998 L 0.527289 1.4194319999999998 L 0.419832 1.69932 Q 0.414834 1.714314 0.397341 1.7318069999999999 Q 0.37984799999999996 1.7492999999999999 0.342363 1.7492999999999999 L 0.082467 1.7492999999999999 M 0.619752 1.0970609999999998 L 1.1370449999999999 1.0970609999999998 L 0.879648 0.37734899999999993 L 0.619752 1.0970609999999998 M 2.0316357509765623 1.7492999999999999 Q 2.0041467509765623 1.7492999999999999 1.9866537509765623 1.7318069999999999 Q 1.9691607509765623 1.714314 1.9691607509765623 1.6868249999999998 L 1.9691607509765623 0.062474999999999836 Q 1.9691607509765623 0.03498599999999996 1.9866537509765623 0.01749299999999998 Q 2.0041467509765623 0 2.0316357509765623 0 L 2.3140227509765623 0 Q 2.3415117509765624 0 2.3590047509765624 0.01749299999999998 Q 2.3764977509765624 0.03498599999999996 2.3764977509765624 0.062474999999999836 L 2.3764977509765624 1.6868249999999998 Q 2.3764977509765624 1.714314 2.3590047509765624 1.7318069999999999 Q 2.3415117509765624 1.7492999999999999 2.3140227509765623 1.7492999999999999 L 2.0316357509765623 1.7492999999999999" fill="#f9f9f9" fill-rule="nonzero"></path></g><g><path d=" M 0.23709449999999999 3.1114386749999996 Q 0.2280795 3.1114386749999996 0.22221975 3.1055789249999997 Q 0.21636 3.0997191749999997 0.21636 3.0907041749999995 L 0.21636 2.560622175 L 0.043272 2.560622175 Q 0.034256999999999996 2.560622175 0.02839725 2.554762425 Q 0.0225375 2.548902675 0.0225375 2.5398876749999997 L 0.0225375 2.5020246749999995 Q 0.0225375 2.4921081749999994 0.02839725 2.4862484249999994 Q 0.034256999999999996 2.4803886749999995 0.043272 2.4803886749999995 L 0.47779499999999997 2.4803886749999995 Q 0.48771149999999996 2.4803886749999995 0.49357124999999996 2.4862484249999994 Q 0.49943099999999996 2.4921081749999994 0.49943099999999996 2.5020246749999995 L 0.49943099999999996 2.5398876749999997 Q 0.49943099999999996 2.548902675 0.49357124999999996 2.554762425 Q 0.48771149999999996 2.560622175 0.47779499999999997 2.560622175 L 0.3056085 2.560622175 L 0.3056085 3.0907041749999995 Q 0.3056085 3.0997191749999997 0.29974875 3.1055789249999997 Q 0.293889 3.1114386749999996 0.28397249999999996 3.1114386749999996 L 0.23709449999999999 3.1114386749999996 M 0.6301300122070311 3.1114386749999996 Q 0.6202135122070311 3.1114386749999996 0.6148045122070311 3.1055789249999997 Q 0.6093955122070311 3.0997191749999997 0.6093955122070311 3.0907041749999995 L 0.6093955122070311 2.5020246749999995 Q 0.6093955122070311 2.4921081749999994 0.6148045122070311 2.4862484249999994 Q 0.6202135122070311 2.4803886749999995 0.6301300122070311 2.4803886749999995 L 0.6761065122070312 2.4803886749999995 Q 0.6860230122070312 2.4803886749999995 0.6918827622070312 2.4862484249999994 Q 0.6977425122070312 2.4921081749999994 0.6977425122070312 2.5020246749999995 L 0.6977425122070312 2.750838675 L 1.0078585122070312 2.750838675 L 1.0078585122070312 2.5020246749999995 Q 1.0078585122070312 2.4921081749999994 1.013718262207031 2.4862484249999994 Q 1.019578012207031 2.4803886749999995 1.0285930122070313 2.4803886749999995 L 1.0745695122070311 2.4803886749999995 Q 1.084486012207031 2.4803886749999995 1.0903457622070312 2.4862484249999994 Q 1.096205512207031 2.4921081749999994 1.096205512207031 2.5020246749999995 L 1.096205512207031 3.0907041749999995 Q 1.096205512207031 3.0997191749999997 1.0903457622070312 3.1055789249999997 Q 1.084486012207031 3.1114386749999996 1.0745695122070311 3.1114386749999996 L 1.0285930122070313 3.1114386749999996 Q 1.019578012207031 3.1114386749999996 1.013718262207031 3.1055789249999997 Q 1.0078585122070312 3.0997191749999997 1.0078585122070312 3.0907041749999995 L 1.0078585122070312 2.8319736749999995 L 0.6977425122070312 2.8319736749999995 L 0.6977425122070312 3.0907041749999995 Q 0.6977425122070312 3.0997191749999997 0.6918827622070312 3.1055789249999997 Q 0.6860230122070312 3.1114386749999996 0.6761065122070312 3.1114386749999996 L 0.6301300122070311 3.1114386749999996 M 1.2828063281249997 3.1114386749999996 Q 1.2728898281249998 3.1114386749999996 1.2674808281249998 3.1055789249999997 Q 1.2620718281249999 3.0997191749999997 1.2620718281249999 3.0907041749999995 L 1.2620718281249999 2.5020246749999995 Q 1.2620718281249999 2.4921081749999994 1.2674808281249998 2.4862484249999994 Q 1.2728898281249998 2.4803886749999995 1.2828063281249997 2.4803886749999995 L 1.6551258281249996 2.4803886749999995 Q 1.6650423281249997 2.4803886749999995 1.6704513281249997 2.4862484249999994 Q 1.6758603281249997 2.4921081749999994 1.6758603281249997 2.5020246749999995 L 1.6758603281249997 2.5362816749999997 Q 1.6758603281249997 2.546198175 1.6704513281249997 2.5516071749999996 Q 1.6650423281249997 2.557016175 1.6551258281249996 2.557016175 L 1.3486158281249998 2.557016175 L 1.3486158281249998 2.754444675 L 1.6352928281249999 2.754444675 Q 1.6452093281249998 2.754444675 1.6506183281249998 2.7603044249999997 Q 1.6560273281249998 2.7661641749999997 1.6560273281249998 2.7760806749999998 L 1.6560273281249998 2.8094361749999996 Q 1.6560273281249998 2.8184511749999994 1.6506183281249998 2.824310925 Q 1.6452093281249998 2.8301706749999997 1.6352928281249999 2.8301706749999997 L 1.3486158281249998 2.8301706749999997 L 1.3486158281249998 3.0348111749999997 L 1.6623378281249996 3.0348111749999997 Q 1.6722543281249997 3.0348111749999997 1.6776633281249997 3.0402201749999995 Q 1.6830723281249997 3.0456291749999997 1.6830723281249997 3.0555456749999994 L 1.6830723281249997 3.0907041749999995 Q 1.6830723281249997 3.0997191749999997 1.6776633281249997 3.1055789249999997 Q 1.6722543281249997 3.1114386749999996 1.6623378281249996 3.1114386749999996 L 1.2828063281249997 3.1114386749999996 M 2.0680247131347653 3.1114386749999996 Q 2.058108213134765 3.1114386749999996 2.0526992131347654 3.1055789249999997 Q 2.0472902131347652 3.0997191749999997 2.0472902131347652 3.0907041749999995 L 2.0472902131347652 2.5020246749999995 Q 2.0472902131347652 2.4921081749999994 2.0526992131347654 2.4862484249999994 Q 2.058108213134765 2.4803886749999995 2.0680247131347653 2.4803886749999995 L 2.3150357131347654 2.4803886749999995 Q 2.3826482131347655 2.4803886749999995 2.4254694631347653 2.5024754249999996 Q 2.468290713134765 2.524562175 2.4885744631347655 2.5624251749999996 Q 2.5088582131347654 2.6002881749999998 2.5088582131347654 2.6471661749999997 Q 2.5088582131347654 2.6841276749999996 2.4966879631347654 2.7107219249999996 Q 2.4845177131347653 2.7373161749999997 2.4664877131347653 2.7539939249999996 Q 2.4484577131347653 2.7706716749999996 2.4313292131347652 2.7796866749999998 Q 2.4664877131347653 2.7968151749999994 2.4939834631347653 2.8355796749999995 Q 2.521479213134765 2.8743441749999996 2.521479213134765 2.9293356749999995 Q 2.521479213134765 2.9789181749999996 2.4989417131347653 3.0203871749999998 Q 2.4764042131347654 3.0618561749999995 2.4317799631347654 3.086647425 Q 2.3871557131347654 3.1114386749999996 2.3222477131347654 3.1114386749999996 L 2.0680247131347653 3.1114386749999996 M 2.1356372131347654 3.0384171749999997 L 2.3105282131347655 3.0384171749999997 Q 2.3682242131347655 3.0384171749999997 2.3997767131347656 3.0068646749999997 Q 2.4313292131347652 2.9753121749999996 2.4313292131347652 2.9293356749999995 Q 2.4313292131347652 2.8815561749999996 2.3997767131347656 2.8504544249999997 Q 2.3682242131347655 2.8193526749999998 2.3105282131347655 2.8193526749999998 L 2.1356372131347654 2.8193526749999998 L 2.1356372131347654 3.0384171749999997 M 2.1356372131347654 2.747232675 L 2.3015132131347653 2.747232675 Q 2.3592092131347653 2.747232675 2.388958713134765 2.7206384249999997 Q 2.4187082131347655 2.6940441749999997 2.4187082131347655 2.6480676749999996 Q 2.4187082131347655 2.6020911749999995 2.388958713134765 2.577750675 Q 2.3592092131347653 2.553410175 2.3015132131347653 2.553410175 L 2.1356372131347654 2.553410175 L 2.1356372131347654 2.747232675 M 2.8857120644531244 3.120453675 Q 2.8081830644531243 3.120453675 2.7531915644531244 3.0938594249999998 Q 2.6982000644531245 3.0672651749999997 2.6684505644531247 3.0118229249999997 Q 2.6387010644531244 2.9563806749999997 2.6350950644531244 2.8725411749999994 Q 2.6341935644531245 2.832875175 2.6341935644531245 2.7963644249999997 Q 2.6341935644531245 2.7598536749999996 2.6350950644531244 2.7201876749999996 Q 2.6387010644531244 2.6372496749999996 2.6698028144531243 2.5818074249999996 Q 2.7009045644531247 2.5263651749999996 2.7563468144531247 2.4988694249999996 Q 2.8117890644531247 2.4713736749999997 2.8857120644531244 2.4713736749999997 Q 2.9587335644531243 2.4713736749999997 3.0141758144531243 2.4988694249999996 Q 3.0696180644531244 2.5263651749999996 3.1011705644531244 2.5818074249999996 Q 3.1327230644531245 2.6372496749999996 3.135427564453124 2.7201876749999996 Q 3.1372305644531244 2.7598536749999996 3.1372305644531244 2.7963644249999997 Q 3.1372305644531244 2.832875175 3.135427564453124 2.8725411749999994 Q 3.1327230644531245 2.9563806749999997 3.1025228144531245 3.0118229249999997 Q 3.0723225644531245 3.0672651749999997 3.0173310644531246 3.0938594249999998 Q 2.9623395644531243 3.120453675 2.8857120644531244 3.120453675 M 2.8857120644531244 3.0438261749999995 Q 2.9542260644531244 3.0438261749999995 2.9979488144531246 3.0023571749999998 Q 3.0416715644531243 2.9608881749999996 3.0452775644531247 2.8680336749999995 Q 3.0470805644531245 2.8274661749999996 3.0470805644531245 2.795462925 Q 3.0470805644531245 2.7634596749999996 3.0452775644531247 2.7237936749999996 Q 3.0434745644531245 2.6615901749999997 3.0222893144531247 2.6228256749999996 Q 3.0011040644531244 2.5840611749999995 2.9659455644531243 2.5660311749999996 Q 2.9307870644531246 2.5480011749999996 2.8857120644531244 2.5480011749999996 Q 2.8406370644531247 2.5480011749999996 2.8054785644531246 2.5660311749999996 Q 2.7703200644531245 2.5840611749999995 2.7491348144531247 2.6228256749999996 Q 2.7279495644531244 2.6615901749999997 2.7252450644531243 2.7237936749999996 Q 2.7243435644531244 2.7634596749999996 2.7243435644531244 2.795462925 Q 2.7243435644531244 2.8274661749999996 2.7252450644531243 2.8680336749999995 Q 2.7288510644531243 2.9608881749999996 2.7730245644531246 3.0023571749999998 Q 2.8171980644531245 3.0438261749999995 2.8857120644531244 3.0438261749999995 M 3.505044325195312 3.120453675 Q 3.427515325195312 3.120453675 3.372523825195312 3.0938594249999998 Q 3.317532325195312 3.0672651749999997 3.287782825195312 3.0118229249999997 Q 3.2580333251953117 2.9563806749999997 3.2544273251953117 2.8725411749999994 Q 3.253525825195312 2.832875175 3.253525825195312 2.7963644249999997 Q 3.253525825195312 2.7598536749999996 3.2544273251953117 2.7201876749999996 Q 3.2580333251953117 2.6372496749999996 3.2891350751953117 2.5818074249999996 Q 3.320236825195312 2.5263651749999996 3.375679075195312 2.4988694249999996 Q 3.4311213251953117 2.4713736749999997 3.505044325195312 2.4713736749999997 Q 3.5780658251953117 2.4713736749999997 3.6335080751953117 2.4988694249999996 Q 3.6889503251953117 2.5263651749999996 3.720502825195312 2.5818074249999996 Q 3.752055325195312 2.6372496749999996 3.754759825195312 2.7201876749999996 Q 3.756562825195312 2.7598536749999996 3.756562825195312 2.7963644249999997 Q 3.756562825195312 2.832875175 3.754759825195312 2.8725411749999994 Q 3.752055325195312 2.9563806749999997 3.721855075195312 3.0118229249999997 Q 3.691654825195312 3.0672651749999997 3.636663325195312 3.0938594249999998 Q 3.5816718251953117 3.120453675 3.505044325195312 3.120453675 M 3.505044325195312 3.0438261749999995 Q 3.573558325195312 3.0438261749999995 3.617281075195312 3.0023571749999998 Q 3.661003825195312 2.9608881749999996 3.6646098251953116 2.8680336749999995 Q 3.666412825195312 2.8274661749999996 3.666412825195312 2.795462925 Q 3.666412825195312 2.7634596749999996 3.6646098251953116 2.7237936749999996 Q 3.662806825195312 2.6615901749999997 3.641621575195312 2.6228256749999996 Q 3.6204363251953118 2.5840611749999995 3.5852778251953117 2.5660311749999996 Q 3.550119325195312 2.5480011749999996 3.505044325195312 2.5480011749999996 Q 3.4599693251953116 2.5480011749999996 3.424810825195312 2.5660311749999996 Q 3.389652325195312 2.5840611749999995 3.368467075195312 2.6228256749999996 Q 3.347281825195312 2.6615901749999997 3.3445773251953117 2.7237936749999996 Q 3.343675825195312 2.7634596749999996 3.343675825195312 2.795462925 Q 3.343675825195312 2.8274661749999996 3.3445773251953117 2.8680336749999995 Q 3.3481833251953117 2.9608881749999996 3.392356825195312 3.0023571749999998 Q 3.436530325195312 3.0438261749999995 3.505044325195312 3.0438261749999995 M 3.9179330859374994 3.1114386749999996 Q 3.9080165859374993 3.1114386749999996 3.902607585937499 3.1055789249999997 Q 3.8971985859374993 3.0997191749999997 3.8971985859374993 3.0907041749999995 L 3.8971985859374993 2.5020246749999995 Q 3.8971985859374993 2.4921081749999994 3.902607585937499 2.4862484249999994 Q 3.9080165859374993 2.4803886749999995 3.9179330859374994 2.4803886749999995 L 3.959402085937499 2.4803886749999995 Q 3.970220085937499 2.4803886749999995 3.9756290859374994 2.4853469249999995 Q 3.981038085937499 2.4903051749999996 3.981939585937499 2.4930096749999997 L 4.281237585937499 2.9527746749999997 L 4.281237585937499 2.5020246749999995 Q 4.281237585937499 2.4921081749999994 4.2866465859375 2.4862484249999994 Q 4.292055585937499 2.4803886749999995 4.301972085937499 2.4803886749999995 L 4.345244085937499 2.4803886749999995 Q 4.355160585937499 2.4803886749999995 4.361020335937499 2.4862484249999994 Q 4.366880085937499 2.4921081749999994 4.366880085937499 2.5020246749999995 L 4.366880085937499 3.0898026749999996 Q 4.366880085937499 3.0988176749999994 4.361020335937499 3.1051281749999995 Q 4.355160585937499 3.1114386749999996 4.346145585937499 3.1114386749999996 L 4.302873585937499 3.1114386749999996 Q 4.292957085937499 3.1114386749999996 4.2879988359375 3.1060296749999994 Q 4.283040585937499 3.1006206749999996 4.281237585937499 3.0988176749999994 L 3.9828410859374994 2.6435601749999997 L 3.9828410859374994 3.0907041749999995 Q 3.9828410859374994 3.0997191749999997 3.9769813359374995 3.1055789249999997 Q 3.971121585937499 3.1114386749999996 3.9612050859374994 3.1114386749999996 L 3.9179330859374994 3.1114386749999996 M 4.989818786865233 3.120453675 Q 4.912289786865233 3.120453675 4.857298286865233 3.0938594249999998 Q 4.802306786865233 3.0672651749999997 4.772557286865233 3.0118229249999997 Q 4.742807786865233 2.9563806749999997 4.739201786865233 2.8725411749999994 Q 4.7383002868652335 2.832875175 4.7383002868652335 2.7963644249999997 Q 4.7383002868652335 2.7598536749999996 4.739201786865233 2.7201876749999996 Q 4.742807786865233 2.6372496749999996 4.773909536865233 2.5818074249999996 Q 4.805011286865233 2.5263651749999996 4.860453536865233 2.4988694249999996 Q 4.915895786865233 2.4713736749999997 4.989818786865233 2.4713736749999997 Q 5.062840286865233 2.4713736749999997 5.118282536865233 2.4988694249999996 Q 5.173724786865233 2.5263651749999996 5.205277286865233 2.5818074249999996 Q 5.236829786865233 2.6372496749999996 5.239534286865233 2.7201876749999996 Q 5.2413372868652335 2.7598536749999996 5.2413372868652335 2.7963644249999997 Q 5.2413372868652335 2.832875175 5.239534286865233 2.8725411749999994 Q 5.236829786865233 2.9563806749999997 5.206629536865233 3.0118229249999997 Q 5.176429286865233 3.0672651749999997 5.121437786865233 3.0938594249999998 Q 5.066446286865233 3.120453675 4.989818786865233 3.120453675 M 4.989818786865233 3.0438261749999995 Q 5.0583327868652335 3.0438261749999995 5.102055536865233 3.0023571749999998 Q 5.145778286865233 2.9608881749999996 5.149384286865233 2.8680336749999995 Q 5.151187286865233 2.8274661749999996 5.151187286865233 2.795462925 Q 5.151187286865233 2.7634596749999996 5.149384286865233 2.7237936749999996 Q 5.147581286865233 2.6615901749999997 5.126396036865233 2.6228256749999996 Q 5.105210786865233 2.5840611749999995 5.070052286865233 2.5660311749999996 Q 5.034893786865233 2.5480011749999996 4.989818786865233 2.5480011749999996 Q 4.944743786865233 2.5480011749999996 4.909585286865233 2.5660311749999996 Q 4.874426786865233 2.5840611749999995 4.853241536865233 2.6228256749999996 Q 4.8320562868652335 2.6615901749999997 4.829351786865233 2.7237936749999996 Q 4.828450286865233 2.7634596749999996 4.828450286865233 2.795462925 Q 4.828450286865233 2.8274661749999996 4.829351786865233 2.8680336749999995 Q 4.832957786865233 2.9608881749999996 4.877131286865233 3.0023571749999998 Q 4.9213047868652335 3.0438261749999995 4.989818786865233 3.0438261749999995 M 5.402707547607421 3.1114386749999996 Q 5.392791047607421 3.1114386749999996 5.387382047607421 3.1055789249999997 Q 5.381973047607421 3.0997191749999997 5.381973047607421 3.0907041749999995 L 5.381973047607421 2.5020246749999995 Q 5.381973047607421 2.4921081749999994 5.387382047607421 2.4862484249999994 Q 5.392791047607421 2.4803886749999995 5.402707547607421 2.4803886749999995 L 5.770519547607421 2.4803886749999995 Q 5.780436047607421 2.4803886749999995 5.786295797607421 2.4862484249999994 Q 5.792155547607421 2.4921081749999994 5.792155547607421 2.5020246749999995 L 5.792155547607421 2.5380846749999995 Q 5.792155547607421 2.5480011749999996 5.786295797607421 2.553410175 Q 5.780436047607421 2.5588191749999996 5.770519547607421 2.5588191749999996 L 5.469418547607421 2.5588191749999996 L 5.469418547607421 2.768868675 L 5.752489547607421 2.768868675 Q 5.762406047607421 2.768868675 5.7682657976074205 2.7747284249999997 Q 5.7741255476074205 2.7805881749999997 5.7741255476074205 2.7905046749999998 L 5.7741255476074205 2.8265646749999997 Q 5.7741255476074205 2.8355796749999995 5.7682657976074205 2.8414394249999995 Q 5.762406047607421 2.847299175 5.752489547607421 2.847299175 L 5.469418547607421 2.847299175 L 5.469418547607421 3.0907041749999995 Q 5.469418547607421 3.0997191749999997 5.463558797607421 3.1055789249999997 Q 5.457699047607421 3.1114386749999996 5.447782547607421 3.1114386749999996 L 5.402707547607421 3.1114386749999996 M 6.153646483154295 3.1114386749999996 Q 6.144631483154296 3.1114386749999996 6.138771733154295 3.1055789249999997 Q 6.132911983154295 3.0997191749999997 6.132911983154295 3.0907041749999995 L 6.132911983154295 2.5020246749999995 Q 6.132911983154295 2.4921081749999994 6.138771733154295 2.4862484249999994 Q 6.144631483154296 2.4803886749999995 6.153646483154295 2.4803886749999995 L 6.198721483154295 2.4803886749999995 Q 6.209539483154296 2.4803886749999995 6.214948483154295 2.4857976749999997 Q 6.220357483154295 2.4912066749999995 6.222160483154295 2.4948126749999995 L 6.412376983154295 2.8590186749999997 L 6.604396483154295 2.4948126749999995 Q 6.606199483154295 2.4912066749999995 6.611157733154295 2.4857976749999997 Q 6.6161159831542955 2.4803886749999995 6.626933983154295 2.4803886749999995 L 6.671107483154295 2.4803886749999995 Q 6.6810239831542955 2.4803886749999995 6.686883733154295 2.4862484249999994 Q 6.692743483154295 2.4921081749999994 6.692743483154295 2.5020246749999995 L 6.692743483154295 3.0907041749999995 Q 6.692743483154295 3.0997191749999997 6.686883733154295 3.1055789249999997 Q 6.6810239831542955 3.1114386749999996 6.671107483154295 3.1114386749999996 L 6.626933983154295 3.1114386749999996 Q 6.617918983154295 3.1114386749999996 6.612059233154295 3.1055789249999997 Q 6.606199483154295 3.0997191749999997 6.606199483154295 3.0907041749999995 L 6.606199483154295 2.6471661749999997 L 6.455648983154295 2.941055175 Q 6.452042983154295 2.9500701749999996 6.444830983154295 2.9550284249999996 Q 6.437618983154295 2.9599866749999997 6.426800983154295 2.9599866749999997 L 6.398854483154295 2.9599866749999997 Q 6.387134983154295 2.9599866749999997 6.380824483154295 2.9550284249999996 Q 6.374513983154295 2.9500701749999996 6.370006483154295 2.941055175 L 6.218554483154295 2.6471661749999997 L 6.218554483154295 3.0907041749999995 Q 6.218554483154295 3.0997191749999997 6.212694733154295 3.1055789249999997 Q 6.2068349831542955 3.1114386749999996 6.197819983154295 3.1114386749999996 L 6.153646483154295 3.1114386749999996 M 6.815353205566405 3.1114386749999996 Q 6.808141205566405 3.1114386749999996 6.802732205566405 3.1060296749999994 Q 6.797323205566405 3.1006206749999996 6.797323205566405 3.0934086749999996 Q 6.797323205566405 3.0889011749999997 6.798224705566405 3.0834921749999995 L 7.021796705566405 2.5002216749999997 Q 7.025402705566405 2.4912066749999995 7.031713205566405 2.4857976749999997 Q 7.038023705566404 2.4803886749999995 7.0506447055664045 2.4803886749999995 L 7.111946705566405 2.4803886749999995 Q 7.124567705566405 2.4803886749999995 7.130878205566405 2.4857976749999997 Q 7.1371887055664045 2.4912066749999995 7.140794705566405 2.5002216749999997 L 7.3634652055664045 3.0834921749999995 Q 7.365268205566405 3.0889011749999997 7.365268205566405 3.0934086749999996 Q 7.365268205566405 3.1006206749999996 7.359859205566405 3.1060296749999994 Q 7.354450205566405 3.1114386749999996 7.347238205566405 3.1114386749999996 L 7.301261705566405 3.1114386749999996 Q 7.290443705566405 3.1114386749999996 7.285485455566405 3.1060296749999994 Q 7.280527205566405 3.1006206749999996 7.278724205566405 3.0961131749999997 L 7.229141705566405 2.9681001749999996 L 6.933449705566405 2.9681001749999996 L 6.883867205566405 3.0961131749999997 Q 6.882965705566405 3.1006206749999996 6.877556705566405 3.1060296749999994 Q 6.872147705566404 3.1114386749999996 6.861329705566405 3.1114386749999996 L 6.815353205566405 3.1114386749999996 M 6.959593205566405 2.890571175 L 7.202998205566405 2.890571175 L 7.081295705566405 2.570538675 L 6.959593205566405 2.890571175 M 7.491462799072265 3.1114386749999996 Q 7.4815462990722645 3.1114386749999996 7.476137299072264 3.1055789249999997 Q 7.470728299072264 3.0997191749999997 7.470728299072264 3.0907041749999995 L 7.470728299072264 2.5020246749999995 Q 7.470728299072264 2.4921081749999994 7.476137299072264 2.4862484249999994 Q 7.4815462990722645 2.4803886749999995 7.491462799072265 2.4803886749999995 L 7.532931799072265 2.4803886749999995 Q 7.543749799072264 2.4803886749999995 7.549158799072265 2.4853469249999995 Q 7.554567799072265 2.4903051749999996 7.555469299072264 2.4930096749999997 L 7.854767299072265 2.9527746749999997 L 7.854767299072265 2.5020246749999995 Q 7.854767299072265 2.4921081749999994 7.860176299072265 2.4862484249999994 Q 7.865585299072264 2.4803886749999995 7.875501799072264 2.4803886749999995 L 7.918773799072264 2.4803886749999995 Q 7.928690299072264 2.4803886749999995 7.934550049072264 2.4862484249999994 Q 7.940409799072264 2.4921081749999994 7.940409799072264 2.5020246749999995 L 7.940409799072264 3.0898026749999996 Q 7.940409799072264 3.0988176749999994 7.934550049072264 3.1051281749999995 Q 7.928690299072264 3.1114386749999996 7.9196752990722645 3.1114386749999996 L 7.8764032990722646 3.1114386749999996 Q 7.8664867990722644 3.1114386749999996 7.861528549072265 3.1060296749999994 Q 7.856570299072264 3.1006206749999996 7.854767299072265 3.0988176749999994 L 7.556370799072265 2.6435601749999997 L 7.556370799072265 3.0907041749999995 Q 7.556370799072265 3.0997191749999997 7.550511049072265 3.1055789249999997 Q 7.544651299072265 3.1114386749999996 7.534734799072265 3.1114386749999996 L 7.491462799072265 3.1114386749999996 M 8.127026901855468 3.1114386749999996 Q 8.117110401855468 3.1114386749999996 8.111701401855468 3.1055789249999997 Q 8.106292401855468 3.0997191749999997 8.106292401855468 3.0907041749999995 L 8.106292401855468 2.5020246749999995 Q 8.106292401855468 2.4921081749999994 8.111701401855468 2.4862484249999994 Q 8.117110401855468 2.4803886749999995 8.127026901855468 2.4803886749999995 L 8.172101901855468 2.4803886749999995 Q 8.182018401855467 2.4803886749999995 8.187878151855468 2.4862484249999994 Q 8.193737901855469 2.4921081749999994 8.193737901855469 2.5020246749999995 L 8.193737901855469 2.725596675 L 8.434438401855468 2.4948126749999995 Q 8.438044401855468 2.4912066749999995 8.446608651855469 2.4857976749999997 Q 8.455172901855468 2.4803886749999995 8.469596901855468 2.4803886749999995 L 8.518277901855468 2.4803886749999995 Q 8.525489901855469 2.4803886749999995 8.530898901855469 2.4857976749999997 Q 8.536307901855468 2.4912066749999995 8.536307901855468 2.4984186749999995 Q 8.536307901855468 2.5056306749999995 8.532701901855468 2.510138175 L 8.254138401855467 2.7823911749999994 L 8.550731901855467 3.0807876749999994 Q 8.555239401855468 3.0861966749999996 8.555239401855468 3.0934086749999996 Q 8.555239401855468 3.1006206749999996 8.549830401855468 3.1060296749999994 Q 8.544421401855468 3.1114386749999996 8.537209401855469 3.1114386749999996 L 8.486725401855468 3.1114386749999996 Q 8.471399901855468 3.1114386749999996 8.463286401855468 3.1055789249999997 Q 8.455172901855468 3.0997191749999997 8.451566901855468 3.0961131749999997 L 8.193737901855469 2.8427916749999995 L 8.193737901855469 3.0907041749999995 Q 8.193737901855469 3.0997191749999997 8.187878151855468 3.1055789249999997 Q 8.182018401855467 3.1114386749999996 8.172101901855468 3.1114386749999996 L 8.127026901855468 3.1114386749999996 M 8.677855286865233 3.1114386749999996 Q 8.667938786865234 3.1114386749999996 8.662529786865234 3.1055789249999997 Q 8.657120786865233 3.0997191749999997 8.657120786865233 3.0907041749999995 L 8.657120786865233 2.5011231749999996 Q 8.657120786865233 2.4921081749999994 8.662529786865234 2.4862484249999994 Q 8.667938786865234 2.4803886749999995 8.677855286865233 2.4803886749999995 L 8.725634786865234 2.4803886749999995 Q 8.735551286865233 2.4803886749999995 8.740960286865233 2.4862484249999994 Q 8.746369286865233 2.4921081749999994 8.746369286865233 2.5011231749999996 L 8.746369286865233 3.0907041749999995 Q 8.746369286865233 3.0997191749999997 8.740960286865233 3.1055789249999997 Q 8.735551286865233 3.1114386749999996 8.725634786865234 3.1114386749999996 L 8.677855286865233 3.1114386749999996 M 8.932989030761718 3.1114386749999996 Q 8.923072530761718 3.1114386749999996 8.917663530761718 3.1055789249999997 Q 8.912254530761718 3.0997191749999997 8.912254530761718 3.0907041749999995 L 8.912254530761718 2.5020246749999995 Q 8.912254530761718 2.4921081749999994 8.917663530761718 2.4862484249999994 Q 8.923072530761718 2.4803886749999995 8.932989030761718 2.4803886749999995 L 8.974458030761719 2.4803886749999995 Q 8.98527603076172 2.4803886749999995 8.990685030761718 2.4853469249999995 Q 8.996094030761718 2.4903051749999996 8.996995530761719 2.4930096749999997 L 9.296293530761718 2.9527746749999997 L 9.296293530761718 2.5020246749999995 Q 9.296293530761718 2.4921081749999994 9.301702530761718 2.4862484249999994 Q 9.307111530761718 2.4803886749999995 9.317028030761719 2.4803886749999995 L 9.360300030761719 2.4803886749999995 Q 9.370216530761718 2.4803886749999995 9.376076280761719 2.4862484249999994 Q 9.381936030761718 2.4921081749999994 9.381936030761718 2.5020246749999995 L 9.381936030761718 3.0898026749999996 Q 9.381936030761718 3.0988176749999994 9.376076280761719 3.1051281749999995 Q 9.370216530761718 3.1114386749999996 9.361201530761718 3.1114386749999996 L 9.317929530761718 3.1114386749999996 Q 9.308013030761717 3.1114386749999996 9.303054780761718 3.1060296749999994 Q 9.298096530761718 3.1006206749999996 9.296293530761718 3.0988176749999994 L 8.997897030761719 2.6435601749999997 L 8.997897030761719 3.0907041749999995 Q 8.997897030761719 3.0997191749999997 8.992037280761718 3.1055789249999997 Q 8.986177530761719 3.1114386749999996 8.976261030761718 3.1114386749999996 L 8.932989030761718 3.1114386749999996 M 9.56855313354492 3.1114386749999996 Q 9.558636633544921 3.1114386749999996 9.553227633544921 3.1055789249999997 Q 9.54781863354492 3.0997191749999997 9.54781863354492 3.0907041749999995 L 9.54781863354492 2.5020246749999995 Q 9.54781863354492 2.4921081749999994 9.553227633544921 2.4862484249999994 Q 9.558636633544921 2.4803886749999995 9.56855313354492 2.4803886749999995 L 9.77319363354492 2.4803886749999995 Q 9.866048133544922 2.4803886749999995 9.92284263354492 2.5083351749999996 Q 9.979637133544921 2.5362816749999997 10.005780633544921 2.590822425 Q 10.031924133544921 2.6453631749999995 10.03282563354492 2.7246951749999995 Q 10.033727133544922 2.765262675 10.033727133544922 2.7959136749999995 Q 10.033727133544922 2.8265646749999997 10.03282563354492 2.8662306749999997 Q 10.031022633544922 2.9491686749999997 10.00532988354492 3.0037094249999994 Q 9.979637133544921 3.0582501749999995 9.92419488354492 3.0848444249999996 Q 9.868752633544922 3.1114386749999996 9.777701133544921 3.1114386749999996 L 9.56855313354492 3.1114386749999996 M 9.636165633544922 3.0348111749999997 L 9.77319363354492 3.0348111749999997 Q 9.835397133544921 3.0348111749999997 9.872358633544922 3.0176826749999996 Q 9.909320133544922 3.0005541749999995 9.925997883544921 2.962691175 Q 9.942675633544921 2.9248281749999996 9.94357713354492 2.8626246749999997 Q 9.945380133544921 2.8355796749999995 9.945380133544921 2.8152959249999996 Q 9.945380133544921 2.7950121749999997 9.945380133544921 2.7747284249999997 Q 9.945380133544921 2.754444675 9.94357713354492 2.7283011749999995 Q 9.941774133544921 2.6408556749999996 9.902108133544921 2.5989359249999997 Q 9.86244213354492 2.557016175 9.768686133544922 2.557016175 L 9.636165633544922 2.557016175 L 9.636165633544922 3.0348111749999997" fill="#e9e9e5" fill-rule="nonzero"></path></g><g clip-path="url(&quot;#SvgjsClipPath1002&quot;)"><g clip-path="url(&quot;#SvgjsClipPath1000985e843e-7c80-45ba-815c-7029c924749f&quot;)"><path d=" M -3.7855260311193173 2.3522833151646054 L -3.7855260311193173 0.9968784241685127 C -3.7852253257583293 0.851449780676693 -3.667487016546728 0.733589082370277 -3.5220587639667107 0.7331372825178261 L -3.5220587639667107 2.353378813156924 C -3.5208577973480186 2.658721037888788 -3.273626753581502 2.905952081655279 -2.968284528849664 2.907153048273935 L -2.637444135169499 2.907153048273935 C -2.492078144502994 2.9077542858338647 -2.3744270756923926 3.0255276530527926 -2.373976868016897 3.170894189924624 L -2.968284528849695 3.170894189924624 C -3.419605760006327 3.169537453795976 -3.784924898624731 2.8036061852536154 -3.7855260311193173 2.3522833151646054 Z" fill="#32eea3" transform="matrix(1,0,0,1,0,0)" fill-rule="evenodd"></path></g><g clip-path="url(&quot;#SvgjsClipPath1000985e843e-7c80-45ba-815c-7029c924749f&quot;)"><path d=" M -3.7855260311193173 1.9570824144356995 L -3.7855260311193173 0.9968784241685127 C -3.7852253257583293 0.851449780676693 -3.667487016546728 0.733589082370277 -3.5220587639667107 0.7331372825178261 L -3.5220587639667107 1.958177912428016 C -3.5207089422775657 2.2634581148016846 -3.2735647312234035 2.5106023258558645 -2.968284528849717 2.5119521475450313 L -2.0466968428117376 2.5119521475450313 C -1.9013751423868506 2.512403226953574 -1.7836806550676734 2.6300977142727513 -1.7832295756591305 2.7754194146976356 L -2.968284528849695 2.7754194146976356 C -3.4195614910087437 2.7742131886262014 -3.784924329585891 2.408360587530855 -3.7855260311193173 1.9570824144356995 Z" fill="#32eea3" transform="matrix(1,0,0,1,0,0)" fill-rule="evenodd"></path></g><g clip-path="url(&quot;#SvgjsClipPath1000985e843e-7c80-45ba-815c-7029c924749f&quot;)"><path d=" M -3.7855260311193173 1.5616076392087117 L -3.7855260311193173 0.9968784241685127 C -3.7852253257583293 0.851449780676693 -3.667487016546728 0.733589082370277 -3.5220587639667107 0.7331372825178261 L -3.5220587639667107 1.5627031372010283 C -3.5208588390576954 1.8680902884194597 -3.273671049451418 2.1154003271798407 -2.9682845288496864 2.116751246816121 L -1.4556756759558933 2.116751246816121 C -1.310353975531009 2.1172023262246658 -1.1926594882118335 2.234896813543844 -1.1922084088032912 2.38021851396873 L -2.968284528849695 2.38021851396873 C -3.419605760006327 2.378861777840087 -3.784924898624731 2.012930509297722 -3.7855260311193173 1.5616076392087117 Z" fill="#32eea3" transform="matrix(1,0,0,1,0,0)" fill-rule="evenodd"></path></g><g clip-path="url(&quot;#SvgjsClipPath1000985e843e-7c80-45ba-815c-7029c924749f&quot;)"><path d=" M -0.6649999999999978 0.7588814853373137 L -0.6649999999999978 2.115655748823805 C -0.6653013148811362 2.261039710933124 -0.783083305043272 2.378821701095264 -0.9284672671525955 2.379123015976411 L -0.9284672671525955 0.7588814853373137 C -0.9295190994976341 0.4534771646813266 -1.1768371816136063 0.20615908256534082 -1.4822415022696092 0.20510725022030257 L -1.8136296449459708 0.20510725022030257 C -1.9589513453708598 0.20465617081175774 -2.076645832690035 0.08696168349258035 -2.07709691209858 -0.05836001693230419 L -1.4830631257638593 -0.05836001693230419 C -1.0319541058039157 -0.05745772377772567 -0.6663555925544253 0.30777359980328123 -0.6649999999999978 0.7588814853373137 Z" fill="#32eea3" transform="matrix(1,0,0,1,0,0)" fill-rule="evenodd"></path></g><g clip-path="url(&quot;#SvgjsClipPath1000985e843e-7c80-45ba-815c-7029c924749f&quot;)"><path d=" M -0.6649999999999978 1.1543562605642992 L -0.6649999999999978 2.115655748823805 C -0.6653013148811362 2.2610397109331224 -0.783083305043272 2.378821701095262 -0.9284672671525955 2.3791230159764094 L -0.9284672671525955 1.1543562605642992 C -0.9295181815925959 0.8489070869100631 -1.1767928855633043 0.6015100908008986 -1.4822415022696247 0.6003081509492039 L -2.4038291883075757 0.6003081509492039 C -2.5491508887324623 0.5998570715406613 -2.6668453760516417 0.48216258422148384 -2.6672964554601823 0.3368408837965971 L -1.4822415022696203 0.3368408837965971 C -1.0313467903230515 0.33819513242492605 -0.6662031697453736 0.7034611201676805 -0.6649999999999978 1.1543562605642992 Z" fill="#32eea3" transform="matrix(1,0,0,1,0,0)" fill-rule="evenodd"></path></g><g clip-path="url(&quot;#SvgjsClipPath1000985e843e-7c80-45ba-815c-7029c924749f&quot;)"><path d=" M -0.6649999999999978 1.549557161293207 L -0.6649999999999978 2.115655748823805 C -0.6653013148811362 2.261039710933124 -0.783083305043272 2.378821701095264 -0.9284672671525955 2.379123015976411 L -0.9284672671525955 1.5495571612932093 C -0.9302685812667595 1.2445364907081415 -1.1774911825387067 0.9979249190982733 -1.4825153767677133 0.9968784241685127 L -2.995124229661497 0.9968784241685127 C -3.1405524822415187 0.9964266243160573 -3.25829079145312 0.8785659260096412 -3.258591496814108 0.7331372825178261 L -1.4825153767676977 0.7331372825178261 C -1.0320015919532577 0.734487300397527 -0.6669541247213426 1.0990455917939548 -0.6649999999999978 1.549557161293207 Z" fill="#32eea3" transform="matrix(1,0,0,1,0,0)" fill-rule="evenodd"></path></g></g></g><defs><clipPath id="SvgjsClipPath1002"><path d=" M -3.7855260311193173 -0.05836001693230641 h 3.1205260311193173 v 3.2281587088646124 h -3.1205260311193173 Z"></path></clipPath><clipPath id="SvgjsClipPath1000985e843e-7c80-45ba-815c-7029c924749f"><path d=" M -3.7855260311193173 -0.05836001693230641 L -0.665 -0.05836001693230641 L -0.665 3.1697986919323062 L -3.7855260311193173 3.1697986919323062 Z"></path></clipPath></defs></svg>